<svg width="39" height="47" viewBox="0 0 39 47" fill="none" xmlns="http://www.w3.org/2000/svg">
<g filter="url(#filter0_d_129_13)">
<path d="M15.5278 25.7011L11.606 29.5583C11.606 29.5583 11.5979 29.566 11.5947 29.5722C11.5899 29.5768 11.5882 29.5783 11.5834 29.5814C10.2228 30.9093 8.009 30.9231 6.63224 29.6107C6.32845 29.318 6.0893 28.9883 5.9164 28.6325L5.87438 28.651C3.44244 23.5568 3.37618 17.6616 5.68047 12.5243C5.68047 12.5212 5.68209 12.5181 5.6837 12.5135C5.76935 12.3225 5.85984 12.1299 5.95356 11.9405C6.10061 11.6909 6.28159 11.4568 6.49974 11.2442C7.85872 9.90711 10.079 9.89016 11.4606 11.2057L15.5181 15.0722C13.4368 18.3178 13.4417 22.46 15.5278 25.7026V25.7011Z" fill="url(#paint0_linear_129_13)"/>
</g>
<g filter="url(#filter1_d_129_13)">
<path d="M31.9369 26.1363L30.4071 27.6564L29.3487 28.7101C29.3185 28.7392 29.2884 28.7682 29.2582 28.7973C29.2281 28.8263 29.2011 28.8554 29.1725 28.8845L21.5458 36.4699C21.5458 36.4699 21.5379 36.4776 21.5331 36.4806C21.53 36.4852 21.5268 36.4883 21.5236 36.4913L19.0877 38.9138C15.6854 38.0864 12.464 36.372 9.80272 33.7722C9.26317 33.2446 8.76012 32.6955 8.29516 32.1251C7.27636 30.8772 6.4353 29.536 5.77356 28.1336L5.81482 28.1152C5.98462 28.467 6.21948 28.7958 6.51782 29.0863C7.86987 30.3893 10.0439 30.3755 11.3801 29.0573C11.3849 29.0542 11.3865 29.0527 11.3912 29.0481C11.396 29.0435 11.3991 29.0405 11.4023 29.0343L15.2537 25.2049L20.6397 19.8477L15.2442 14.651L11.2595 10.8124C9.90269 9.5064 7.72228 9.52322 6.38769 10.8507C6.17346 11.0632 5.99573 11.2957 5.85132 11.5419C6.47656 10.2481 7.25415 9.00937 8.18407 7.85014C8.67284 7.24147 9.20446 6.65268 9.77733 6.08989C12.3957 3.5298 15.5537 1.82613 18.8941 0.977356L21.2554 3.25299L29.4963 11.1917L29.5169 11.2116C29.5454 11.2391 29.5756 11.2651 29.6042 11.2926L31.1815 12.8128L31.1514 12.8419C34.8663 16.4725 35.1298 22.2059 31.9385 26.1347L31.9369 26.1363Z" fill="#E86148"/>
</g>
<defs>
<filter id="filter0_d_129_13" x="0" y="10.2301" width="19.5278" height="28.3561" filterUnits="userSpaceOnUse" color-interpolation-filters="sRGB">
<feFlood flood-opacity="0" result="BackgroundImageFix"/>
<feColorMatrix in="SourceAlpha" type="matrix" values="0 0 0 0 0 0 0 0 0 0 0 0 0 0 0 0 0 0 127 0" result="hardAlpha"/>
<feOffset dy="4"/>
<feGaussianBlur stdDeviation="2"/>
<feComposite in2="hardAlpha" operator="out"/>
<feColorMatrix type="matrix" values="0 0 0 0 0 0 0 0 0 0 0 0 0 0 0 0 0 0 0.25 0"/>
<feBlend mode="normal" in2="BackgroundImageFix" result="effect1_dropShadow_129_13"/>
<feBlend mode="normal" in="SourceGraphic" in2="effect1_dropShadow_129_13" result="shape"/>
</filter>
<filter id="filter1_d_129_13" x="1.77356" y="0.977356" width="36.3762" height="45.9364" filterUnits="userSpaceOnUse" color-interpolation-filters="sRGB">
<feFlood flood-opacity="0" result="BackgroundImageFix"/>
<feColorMatrix in="SourceAlpha" type="matrix" values="0 0 0 0 0 0 0 0 0 0 0 0 0 0 0 0 0 0 127 0" result="hardAlpha"/>
<feOffset dy="4"/>
<feGaussianBlur stdDeviation="2"/>
<feComposite in2="hardAlpha" operator="out"/>
<feColorMatrix type="matrix" values="0 0 0 0 0 0 0 0 0 0 0 0 0 0 0 0 0 0 0.25 0"/>
<feBlend mode="normal" in2="BackgroundImageFix" result="effect1_dropShadow_129_13"/>
<feBlend mode="normal" in="SourceGraphic" in2="effect1_dropShadow_129_13" result="shape"/>
</filter>
<linearGradient id="paint0_linear_129_13" x1="4.00154" y1="20.4066" x2="15.5278" y2="20.4066" gradientUnits="userSpaceOnUse">
<stop stop-color="#E7C672"/>
<stop offset="0.864583" stop-color="#F9822C"/>
<stop offset="1" stop-color="#ED1C24"/>
</linearGradient>
</defs>
</svg>
